# Blender v2.68 (sub 0) OBJ File: ''
# www.blender.org
o Cube
v 1.730867 -1.000000 -2.964692
v 1.730868 0.392654 -0.999999
v 1.730868 0.112177 -2.170602
v 1.730868 -0.296652 -2.706292
v 1.584733 -1.000000 -2.670223
v 1.584733 -1.242317 -2.670223
v 1.584733 -1.400265 -2.453573
v 1.584733 -1.511133 -1.879059
v 0.936300 0.392654 -0.907088
v 0.936300 0.939155 -0.907088
v -1.211670 -1.000000 -2.964692
v 0.259598 -1.000000 -2.964692
v -1.211671 0.392654 -0.999999
v 0.259598 0.392654 -1.000000
v -1.211671 0.112177 -2.170602
v 0.259598 0.112177 -2.170603
v -1.211671 -0.296652 -2.706292
v 0.259598 -0.296652 -2.706293
v -1.065536 -1.000000 -2.670223
v 0.259598 -1.000000 -2.670224
v -1.065536 -1.242317 -2.670223
v 0.259598 -1.242317 -2.670224
v -1.065536 -1.400265 -2.453573
v 0.259598 -1.400265 -2.453573
v -1.065536 -1.511133 -1.879059
v 0.259598 -1.511133 -1.879059
v -0.417103 0.392654 -0.907088
v 0.259598 0.392654 -0.907088
v -0.417103 0.939155 -0.907088
v 0.259598 0.939155 -0.907088
v 1.730867 -1.000000 2.964692
v 1.730867 -1.000000 0.000000
v 1.730868 0.392654 0.999999
v 1.730867 0.392654 0.000000
v 1.730868 0.112177 2.170602
v 1.730868 -0.296652 2.706292
v 1.584733 -1.000000 2.670223
v 1.584733 -1.000000 0.000000
v 1.584733 -1.242317 2.670223
v 1.584733 -1.242317 0.000000
v 1.584733 -1.400265 2.453573
v 1.584733 -1.400265 0.000000
v 1.584733 -1.511133 1.879059
v 1.584733 -1.511133 0.000000
v 0.936300 0.392654 0.907088
v 0.936300 0.392654 0.000000
v 0.936300 0.939155 0.907088
v 0.936300 0.939155 0.000000
v -1.211670 -1.000000 2.964692
v -1.211670 -1.000000 0.000000
v 0.259598 -1.000000 0.000000
v 0.259598 -1.000000 2.964692
v -1.211671 0.392654 0.999999
v -1.211670 0.392654 0.000000
v 0.259598 0.392654 0.000000
v 0.259598 0.392654 1.000000
v -1.211671 0.112177 2.170602
v 0.259598 0.112177 2.170603
v -1.211671 -0.296652 2.706292
v 0.259598 -0.296652 2.706293
v -1.065536 -1.000000 2.670223
v -1.065536 -1.000000 0.000000
v 0.259598 -1.000000 0.000000
v 0.259598 -1.000000 2.670224
v -1.065536 -1.242317 2.670223
v -1.065536 -1.242317 0.000000
v 0.259598 -1.242317 0.000000
v 0.259598 -1.242317 2.670224
v -1.065536 -1.400265 2.453573
v -1.065536 -1.400265 0.000000
v 0.259598 -1.400265 0.000000
v 0.259598 -1.400265 2.453573
v -1.065536 -1.511133 1.879059
v -1.065536 -1.511133 0.000000
v 0.259598 -1.511133 0.000000
v 0.259598 -1.511133 1.879059
v -0.417103 0.392654 0.907088
v -0.417103 0.392654 0.000000
v 0.259598 0.392654 0.000000
v 0.259598 0.392654 0.907088
v -0.417103 0.939155 0.907088
v -0.417103 0.939155 0.000000
v 0.259598 0.939155 0.000000
v 0.259598 0.939155 0.907088
vn 1.000000 0.000001 0.000001
vn 0.000000 0.344849 -0.938658
vn 0.000000 0.972475 -0.233005
vn 0.000000 0.794942 -0.606686
vn 1.000000 -0.000000 0.000000
vn 0.000000 -1.000000 0.000000
vn 0.000000 0.000000 -1.000000
vn 0.000000 -0.808054 -0.589108
vn 0.000000 -0.981885 -0.189480
vn -0.000000 1.000000 -0.000000
vn 1.000000 0.000000 0.000001
vn 0.000000 0.000000 0.000000
vn -1.000000 0.000001 0.000001
vn -1.000000 0.000000 -0.000000
vn -0.000000 -0.981884 -0.189480
vn -1.000000 0.000000 0.000001
vn 1.000000 0.000001 -0.000001
vn 0.000000 0.344849 0.938658
vn 0.000000 0.972475 0.233005
vn 0.000000 0.794942 0.606686
vn 0.000000 -0.000000 1.000000
vn 0.000000 -0.808054 0.589108
vn 0.000000 -0.981884 0.189480
vn 1.000000 0.000000 -0.000001
vn -1.000000 0.000001 -0.000001
vn -0.000000 -0.981885 0.189480
vn -1.000000 0.000000 -0.000001
vn 0.000000 -0.808054 -0.589109
vn 0.000000 -0.808054 0.589109
s off
f 32//1 2//1 34//1
f 4//2 1//2 18//2
f 2//3 3//3 14//3
f 3//4 4//4 16//4
f 5//5 38//5 6//5
f 1//6 32//6 38//6
f 12//6 1//6 20//6
f 20//7 5//7 22//7
f 6//5 40//5 42//5
f 22//8 6//8 24//8
f 8//6 44//6 26//6
f 7//5 42//5 44//5
f 24//9 7//9 26//9
f 9//7 28//7 10//7
f 34//10 2//10 46//10
f 2//10 14//10 28//10
f 10//10 30//10 48//10
f 46//11 9//11 48//11
f 14//12 28//12 55//12
f 50//13 54//13 13//13
f 55//5 51//5 14//5
f 17//2 18//2 11//2
f 13//3 14//3 15//3
f 15//4 16//4 17//4
f 19//14 21//14 62//14
f 11//6 19//6 62//6
f 12//6 20//6 11//6
f 51//12 63//12 20//12
f 67//5 71//5 22//5
f 20//7 22//7 19//7
f 63//5 67//5 20//5
f 21//14 23//14 70//14
f 22//8 24//8 21//8
f 25//6 26//6 74//6
f 71//5 75//5 24//5
f 23//14 25//14 74//14
f 24//15 26//15 23//15
f 27//7 29//7 28//7
f 54//10 78//10 13//10
f 13//10 27//10 28//10
f 29//10 82//10 30//10
f 28//5 30//5 79//5
f 78//16 82//16 27//16
f 32//12 38//12 51//12
f 32//17 34//17 33//17
f 32//7 51//7 34//7
f 36//18 60//18 31//18
f 33//19 56//19 35//19
f 35//20 58//20 36//20
f 37//5 39//5 38//5
f 31//6 37//6 38//6
f 52//6 64//6 31//6
f 64//21 68//21 37//21
f 38//7 40//7 63//7
f 42//7 44//7 71//7
f 39//5 41//5 42//5
f 68//22 72//22 39//22
f 40//7 42//7 67//7
f 43//6 76//6 44//6
f 41//5 43//5 44//5
f 72//23 76//23 41//23
f 45//21 47//21 80//21
f 34//10 46//10 33//10
f 33//10 45//10 80//10
f 55//12 79//12 34//12
f 47//10 48//10 84//10
f 79//7 83//7 46//7
f 46//24 48//24 45//24
f 50//12 51//12 62//12
f 56//12 55//12 80//12
f 50//25 53//25 54//25
f 50//7 54//7 51//7
f 51//5 55//5 56//5
f 59//18 49//18 60//18
f 53//19 57//19 56//19
f 57//20 59//20 58//20
f 61//14 62//14 65//14
f 49//6 50//6 62//6
f 52//6 49//6 64//6
f 51//12 52//12 64//12
f 67//5 68//5 71//5
f 64//21 61//21 68//21
f 62//7 63//7 66//7
f 63//5 64//5 67//5
f 70//7 71//7 74//7
f 65//14 66//14 70//14
f 68//22 65//22 72//22
f 66//7 67//7 70//7
f 73//6 74//6 76//6
f 71//5 72//5 75//5
f 69//14 70//14 74//14
f 72//26 69//26 76//26
f 77//21 80//21 81//21
f 54//10 53//10 78//10
f 53//10 56//10 80//10
f 55//12 54//12 79//12
f 81//10 84//10 82//10
f 79//7 78//7 83//7
f 80//5 79//5 84//5
f 78//27 77//27 82//27
f 32//5 1//5 2//5
f 1//5 4//5 2//5
f 4//5 3//5 2//5
f 1//2 12//2 18//2
f 3//3 16//3 14//3
f 4//4 18//4 16//4
f 38//5 40//5 6//5
f 5//6 1//6 38//6
f 1//6 5//6 20//6
f 5//7 6//7 22//7
f 7//5 6//5 42//5
f 6//28 7//28 24//28
f 44//6 75//6 26//6
f 8//5 7//5 44//5
f 7//15 8//15 26//15
f 28//7 30//7 10//7
f 2//10 9//10 46//10
f 9//10 2//10 28//10
f 30//10 83//10 48//10
f 9//11 10//11 48//11
f 28//12 79//12 55//12
f 11//14 50//14 13//14
f 17//14 11//14 13//14
f 15//14 17//14 13//14
f 51//5 12//5 14//5
f 12//5 18//5 14//5
f 18//5 16//5 14//5
f 18//2 12//2 11//2
f 14//3 16//3 15//3
f 16//4 18//4 17//4
f 21//14 66//14 62//14
f 50//6 11//6 62//6
f 20//6 19//6 11//6
f 12//12 51//12 20//12
f 71//5 24//5 22//5
f 22//7 21//7 19//7
f 67//5 22//5 20//5
f 66//14 21//14 70//14
f 24//28 23//28 21//28
f 26//6 75//6 74//6
f 75//5 26//5 24//5
f 70//14 23//14 74//14
f 26//15 25//15 23//15
f 29//7 30//7 28//7
f 78//10 27//10 13//10
f 14//10 13//10 28//10
f 82//10 83//10 30//10
f 30//5 83//5 79//5
f 82//16 29//16 27//16
f 38//12 63//12 51//12
f 31//5 32//5 33//5
f 36//5 31//5 33//5
f 35//5 36//5 33//5
f 51//7 55//7 34//7
f 60//18 52//18 31//18
f 56//19 58//19 35//19
f 58//20 60//20 36//20
f 39//5 40//5 38//5
f 32//6 31//6 38//6
f 64//6 37//6 31//6
f 68//21 39//21 37//21
f 40//7 67//7 63//7
f 44//7 75//7 71//7
f 40//5 39//5 42//5
f 72//29 41//29 39//29
f 42//7 71//7 67//7
f 76//6 75//6 44//6
f 42//5 41//5 44//5
f 76//23 43//23 41//23
f 47//21 84//21 80//21
f 46//10 45//10 33//10
f 56//10 33//10 80//10
f 79//12 46//12 34//12
f 48//10 83//10 84//10
f 83//7 48//7 46//7
f 48//24 47//24 45//24
f 51//12 63//12 62//12
f 55//12 79//12 80//12
f 50//14 49//14 53//14
f 49//14 59//14 53//14
f 59//14 57//14 53//14
f 54//7 55//7 51//7
f 52//5 51//5 56//5
f 60//5 52//5 56//5
f 58//5 60//5 56//5
f 49//18 52//18 60//18
f 57//19 58//19 56//19
f 59//20 60//20 58//20
f 62//14 66//14 65//14
f 61//6 49//6 62//6
f 49//6 61//6 64//6
f 63//12 51//12 64//12
f 68//5 72//5 71//5
f 61//21 65//21 68//21
f 63//7 67//7 66//7
f 64//5 68//5 67//5
f 71//7 75//7 74//7
f 69//14 65//14 70//14
f 65//29 69//29 72//29
f 67//7 71//7 70//7
f 74//6 75//6 76//6
f 72//5 76//5 75//5
f 73//14 69//14 74//14
f 69//23 73//23 76//23
f 80//21 84//21 81//21
f 53//10 77//10 78//10
f 77//10 53//10 80//10
f 54//12 78//12 79//12
f 84//10 83//10 82//10
f 78//7 82//7 83//7
f 79//5 83//5 84//5
f 77//27 81//27 82//27
